<?xml version="1.0" encoding="utf-8"?>
<!-- Generator: Adobe Illustrator 28.3.0, SVG Export Plug-In . SVG Version: 6.00 Build 0)  -->
<svg version="1.1" id="Layer_1" xmlns="http://www.w3.org/2000/svg" xmlns:xlink="http://www.w3.org/1999/xlink" x="0px" y="0px"
	 viewBox="0 0 841.9 336.5" style="enable-background:new 0 0 841.9 336.5;" xml:space="preserve">
<style type="text/css">
	.st0{fill:#0A0A0A;}
	.st1{fill:#EFEFEF;}
	.st2{fill:#0FED14;}
	.st3{enable-background:new    ;}
	.st4{fill:#F90606;}
</style>
<g>
	<path d="M1241.7-53.7L1241.7-53.7l-62.8,113.9h23.3l39.5-69l39.4,69h23.4L1241.7-53.7z"/>
	<path d="M1384.9,19.8c10.1-2.1,17.4-6.4,22-12.9c4.6-6.6,6.8-14.2,6.8-22.9c0-10.4-3.6-19.3-10.9-26.6s-17.3-11-30.1-11.1
		c-6.1,0-15.1,0-27.2-0.1c-12-0.1-21-0.1-27-0.1V60.2h21.5V22.1h21.8l33,38.1h24.6L1384.9,19.8z M1340,2.7v-36.4h32.7
		c6.3,0,11.1,1.8,14.5,5.4s5,7.9,5,12.9s-1.7,9.3-5,12.8c-3.3,3.6-8.2,5.4-14.6,5.4L1340,2.7L1340,2.7z"/>
	<path d="M1477.8,1.4l50.6-55.2h-26.7l-43.3,48.2v-48.2H1437v114h21.5V9.7l47.7,50.4h26.5L1477.8,1.4z"/>
	<path d="M1538.2-5.9v18.2h60V-5.9H1538.2z"/>
	<path d="M1706.4-32.9v-20.8h-85.3V60.2h85.3V39h-64V13.3h61.7v-20h-61.7v-26.2H1706.4z"/>
	<path d="M1750.9,40.3v-94.1h-21.5v114h80.1V40.3H1750.9z"/>
	<polygon points="1164.9,-53.7 1104.7,-3.6 1044.3,-53.7 1044.3,60.2 1065.8,60.2 1065.8,-8.2 1104.2,26.5 1143.4,-8.1 1143.4,60.2 
		1164.9,60.2 	"/>
</g>
<rect x="-53.8" y="-270.7" class="st0" width="925.2" height="196.3"/>
<path class="st1" d="M235.8-229.4L235.8-229.4L173-115.5h23.3l39.5-69l39.4,69h23.4L235.8-229.4z"/>
<path class="st1" d="M379-155.9c10.1-2.1,17.4-6.4,22-12.9c4.6-6.6,6.8-14.2,6.8-22.9c0-10.4-3.6-19.3-10.9-26.6s-17.3-11-30.1-11.1
	c-6.1,0-15.1,0-27.2-0.1c-12-0.1-21-0.1-27-0.1v114.1h21.5v-38.1h21.8l33,38.1h24.6L379-155.9z M334.1-173v-36.4h32.7
	c6.3,0,11.1,1.8,14.5,5.4c3.4,3.6,5,7.9,5,12.9s-1.7,9.3-5,12.8c-3.3,3.6-8.2,5.4-14.6,5.4L334.1-173L334.1-173z"/>
<path class="st1" d="M471.9-174.3l50.6-55.2h-26.7l-43.3,48.2v-48.2H431v113.9h21.5V-166l47.7,50.4h26.5L471.9-174.3z"/>
<path class="st2" d="M532.3-181.6v18.2h60v-18.2H532.3z"/>
<path class="st2" d="M700.5-208.6v-20.8h-85.3v113.9h85.3v-21.2h-64v-25.7h61.7v-20h-61.7v-26.2H700.5z"/>
<path class="st2" d="M744.9-135.4v-94.1h-21.5v113.9h80.1v-19.9h-58.6V-135.4z"/>
<polygon class="st1" points="159,-229.4 98.8,-179.3 38.4,-229.4 38.4,-115.5 59.9,-115.5 59.9,-183.9 98.3,-149.2 137.5,-183.8 
	137.5,-115.5 159,-115.5 "/>
<g>
	<g class="st3">
		<path d="M322.6,489.1v-77.9h22.3l0.7,14.1l-3.1,0.1c1.2-2.5,2.7-4.8,4.5-6.7c1.8-2,3.9-3.6,6.2-4.9c2.3-1.3,4.7-2.3,7.2-3
			c2.5-0.7,5-1,7.6-1c3.8,0,7.3,0.6,10.4,1.8c3.1,1.2,5.9,3.1,8.2,5.6c2.3,2.6,4.2,6.1,5.6,10.5l-3.7-0.3l1.2-2.3
			c1.3-2.3,2.9-4.5,4.9-6.4c2-1.9,4.2-3.5,6.7-4.8c2.4-1.3,5-2.3,7.6-3c2.6-0.7,5.2-1,7.6-1c6.2,0,11.3,1.2,15.4,3.6
			c4.1,2.4,7.2,6,9.3,10.8c2.1,4.8,3.2,10.6,3.2,17.4v47.5h-23.6v-45.6c0-3.1-0.4-5.7-1.3-7.8c-0.9-2.1-2.2-3.6-3.9-4.6
			c-1.7-1-3.8-1.5-6.4-1.5c-2.1,0-3.9,0.3-5.6,1c-1.7,0.7-3.2,1.6-4.4,2.8c-1.2,1.2-2.2,2.5-2.9,4.1c-0.7,1.6-1,3.3-1,5.3v46.3
			h-23.6v-45.7c0-2.9-0.4-5.4-1.3-7.5s-2.2-3.6-4-4.7c-1.8-1.1-3.8-1.6-6.2-1.6c-2.1,0-3.9,0.3-5.6,1c-1.7,0.7-3.2,1.6-4.4,2.8
			c-1.2,1.2-2.2,2.5-2.9,4.1c-0.7,1.6-1,3.3-1,5.1v46.5H322.6z"/>
		<path d="M485.1,490.4c-6.5,0-12.4-1.7-17.5-5.2c-5.1-3.5-9.2-8.3-12.2-14.4c-3-6.1-4.5-13-4.5-20.7c0-7.9,1.5-14.9,4.5-21
			c3-6.1,7.2-10.8,12.5-14.3c5.3-3.5,11.3-5.2,18-5.2c3.7,0,7.1,0.5,10.2,1.6c3.1,1.1,5.8,2.6,8.1,4.5c2.3,1.9,4.3,4.1,6,6.6
			c1.7,2.5,2.9,5.2,3.7,8l-4.8-0.6v-18.5h23.3v77.9h-23.8v-18.8l5.3-0.1c-0.8,2.7-2.1,5.3-3.8,7.8c-1.8,2.4-3.9,4.6-6.5,6.5
			c-2.5,1.9-5.4,3.3-8.5,4.4C492,489.9,488.7,490.4,485.1,490.4z M491.6,470.6c3.6,0,6.7-0.8,9.4-2.5c2.6-1.7,4.7-4,6.2-7.1
			s2.2-6.7,2.2-10.9c0-4.2-0.7-7.8-2.2-10.9s-3.5-5.5-6.2-7.2c-2.6-1.7-5.8-2.6-9.4-2.6c-3.5,0-6.6,0.9-9.2,2.6
			c-2.6,1.7-4.6,4.1-6.1,7.2c-1.5,3.1-2.2,6.7-2.2,10.9c0,4.2,0.7,7.8,2.2,10.9c1.5,3.1,3.5,5.4,6.1,7.1
			C485,469.8,488.1,470.6,491.6,470.6z"/>
		<path d="M545.7,489.1v-77.9H568l1,25.4l-4.4-4.8c1.2-4.2,3.1-8,5.8-11.3c2.7-3.3,5.8-6,9.5-7.9c3.6-2,7.5-2.9,11.6-2.9
			c1.8,0,3.4,0.1,4.9,0.4c1.5,0.3,2.9,0.6,4.2,1l-6.5,26c-1.1-0.7-2.5-1.2-4.3-1.7c-1.8-0.4-3.7-0.7-5.6-0.7c-2.2,0-4.2,0.4-6,1.1
			c-1.9,0.7-3.4,1.8-4.7,3.2c-1.3,1.4-2.3,3-3,4.8c-0.7,1.9-1.1,4-1.1,6.3v39H545.7z"/>
		<path d="M605.1,489.1V380.6h23.5v108.5H605.1z M627.6,466.2l-8.7-17.6l36.4-37.4h30.9L627.6,466.2z M657.9,489.1l-27.4-35.5
			l16.6-12.9l38.6,48.4H657.9z"/>
	</g>
</g>
<g>
	<g>
		<path class="st4" d="M641.6,452.8v-11H683v11H641.6z"/>
		<path class="st4" d="M728.3,489.6c-7.6,0-14.4-1.7-20.3-5c-5.9-3.3-10.5-8-13.9-13.9c-3.3-6-5-12.8-5-20.5c0-6,0.9-11.4,2.8-16.2
			c1.9-4.8,4.5-9.1,7.8-12.7c3.4-3.6,7.4-6.4,12.1-8.4c4.7-2,9.8-3,15.2-3c5.2,0,9.9,0.9,14.1,2.8c4.3,1.9,7.9,4.4,11,7.7
			c3.1,3.3,5.4,7.2,7,11.7c1.6,4.5,2.2,9.4,2.1,14.8l-0.1,5.1h-63.8l-1.6-9.2h57l-2.6,2.5v-3.5c-0.2-3.5-1.2-6.9-3.1-10.2
			c-1.9-3.3-4.5-5.9-7.8-8s-7.4-3.1-12.1-3.1c-5.5,0-10.2,1.1-14.2,3.3c-4,2.2-7.1,5.5-9.2,9.8c-2.2,4.3-3.2,9.6-3.2,16
			c0,6.1,1.2,11.3,3.5,15.8c2.3,4.4,5.7,7.9,10,10.3c4.3,2.4,9.6,3.7,15.8,3.7c3.6,0,7.2-0.6,10.8-1.8c3.6-1.2,7.5-3.6,11.8-7.3
			l5.7,7.9c-2.2,2.2-4.9,4.2-8.1,5.9c-3.1,1.7-6.5,3.1-10.3,4.1C736,489,732.2,489.6,728.3,489.6z"/>
		<path class="st4" d="M769.9,488.1V379.6h11v108.5H769.9z"/>
	</g>
</g>
<g>
	<g class="st3">
		<path d="M41.5,257.8V128.9h36.9l1.2,23.3l-5.1,0.2c1.9-4.2,4.4-7.9,7.4-11.2c3-3.2,6.4-5.9,10.2-8.1c3.8-2.2,7.8-3.8,11.9-5
			c4.1-1.1,8.3-1.7,12.5-1.7c6.3,0,12.1,1,17.2,2.9c5.2,1.9,9.7,5.1,13.6,9.3c3.9,4.3,7,10.1,9.2,17.4l-6.1-0.5l1.9-3.9
			c2.1-3.9,4.8-7.4,8.1-10.6c3.3-3.2,7-5.8,11-8c4-2.2,8.3-3.8,12.6-5c4.4-1.1,8.6-1.7,12.6-1.7c10.2,0,18.7,2,25.5,5.9
			c6.8,4,11.9,9.9,15.4,17.8c3.5,7.9,5.2,17.6,5.2,28.9v78.6h-39.1v-75.5c0-5.2-0.7-9.5-2.2-12.9c-1.5-3.4-3.6-5.9-6.4-7.6
			c-2.8-1.7-6.4-2.5-10.6-2.5c-3.4,0-6.5,0.6-9.3,1.7c-2.8,1.1-5.3,2.7-7.3,4.6c-2,1.9-3.6,4.2-4.7,6.8c-1.1,2.6-1.7,5.5-1.7,8.7
			v76.7h-39.1v-75.7c0-4.9-0.7-9-2.2-12.4s-3.6-6-6.6-7.8c-2.9-1.8-6.3-2.7-10.2-2.7c-3.4,0-6.5,0.6-9.3,1.7
			c-2.8,1.1-5.3,2.7-7.3,4.6c-2,1.9-3.6,4.2-4.7,6.8c-1.1,2.6-1.7,5.4-1.7,8.5v76.9H41.5z"/>
		<path d="M310.7,260c-10.8,0-20.5-2.9-29-8.6c-8.5-5.7-15.3-13.7-20.3-23.8c-5-10.1-7.5-21.6-7.5-34.3c0-13.1,2.5-24.7,7.5-34.7
			c5-10,11.9-17.9,20.6-23.7c8.7-5.7,18.7-8.6,29.9-8.6c6.1,0,11.8,0.9,16.9,2.7c5.1,1.8,9.6,4.2,13.5,7.4c3.9,3.2,7.2,6.8,10,10.9
			c2.8,4.1,4.8,8.5,6.1,13.2l-8-1v-30.6h38.6v128.9h-39.3v-31.1l8.7-0.2c-1.3,4.5-3.4,8.8-6.3,12.9c-2.9,4-6.5,7.6-10.7,10.7
			c-4.2,3.1-8.9,5.5-14.1,7.3C322,259.1,316.5,260,310.7,260z M321.4,227.2c6,0,11.2-1.4,15.5-4.1c4.4-2.8,7.8-6.7,10.2-11.8
			c2.4-5.1,3.6-11.1,3.6-18.1c0-7-1.2-13-3.6-18.1c-2.4-5.1-5.8-9.1-10.2-11.9c-4.4-2.8-9.6-4.2-15.5-4.2c-5.8,0-10.9,1.4-15.2,4.2
			c-4.3,2.8-7.6,6.8-10.1,11.9c-2.4,5.1-3.6,11.1-3.6,18.1c0,7,1.2,13,3.6,18.1c2.4,5.1,5.8,9,10.1,11.8
			C310.5,225.8,315.6,227.2,321.4,227.2z"/>
		<path d="M411,257.8V128.9h36.9l1.7,42l-7.3-8c1.9-7,5.1-13.2,9.6-18.7c4.4-5.5,9.7-9.9,15.7-13.1c6-3.2,12.4-4.9,19.2-4.9
			c2.9,0,5.6,0.2,8.1,0.7c2.5,0.5,4.8,1.1,6.9,1.7l-10.7,43c-1.8-1.1-4.2-2.1-7.2-2.8c-3-0.7-6.1-1.1-9.3-1.1c-3.6,0-6.9,0.6-10,1.8
			c-3.1,1.2-5.7,3-7.8,5.2c-2.1,2.3-3.8,4.9-5,8c-1.2,3.1-1.8,6.6-1.8,10.4v64.6H411z"/>
		<path d="M509.3,257.8V78.2h38.8v179.6H509.3z M546.6,219.9l-14.3-29.1l60.2-61.9h51.2L546.6,219.9z M596.6,257.8l-45.4-58.7
			l27.4-21.4l63.8,80.1H596.6z"/>
	</g>
	<g>
		<path class="st4" d="M569.8,197.6v-18.2h68.4v18.2H569.8z"/>
		<path class="st4" d="M713.2,258.6c-12.6,0-23.8-2.7-33.6-8.3c-9.8-5.5-17.4-13.2-22.9-23.1c-5.5-9.9-8.3-21.2-8.3-34
			c0-9.9,1.5-18.8,4.6-26.8c3.1-8,7.4-15,13-21c5.6-6,12.3-10.6,20-14c7.8-3.3,16.2-5,25.2-5c8.6,0,16.4,1.5,23.4,4.6
			c7,3.1,13.1,7.3,18.2,12.7c5.1,5.4,8.9,11.9,11.5,19.3c2.6,7.4,3.7,15.6,3.4,24.5l-0.2,8.5H662l-2.7-15.3h94.4l-4.4,4.1v-5.8
			c-0.3-5.8-2-11.4-5.1-16.9c-3.1-5.4-7.4-9.8-13-13.2s-12.3-5.1-20-5.1c-9.1,0-16.9,1.8-23.5,5.5c-6.6,3.6-11.7,9-15.3,16.1
			c-3.6,7.1-5.3,15.9-5.3,26.5c0,10,1.9,18.7,5.8,26.1c3.9,7.4,9.4,13.1,16.6,17.1c7.2,4,15.9,6.1,26.1,6.1c6,0,11.9-1,17.8-3
			c5.9-2,12.4-6,19.5-12l9.5,13.1c-3.7,3.7-8.2,7-13.3,9.8c-5.2,2.8-10.8,5.1-17,6.8C726,257.7,719.7,258.6,713.2,258.6z"/>
		<path class="st4" d="M782.2,256.1V76.5h18.2v179.6H782.2z"/>
	</g>
</g>
<g>
	<g class="st3">
		<path class="st4" d="M614.7,682.1c0-3.1,1.1-5.6,3.2-7.3c2.1-1.8,4.6-2.6,7.3-2.6c2,0,3.7,0.7,5.2,2c1.4,1.4,2.2,3.2,2.2,5.4
			c0,3.1-1,5.4-3.1,7.1c-2.1,1.7-4.5,2.5-7.2,2.5c-2.2,0-4-0.6-5.4-1.9C615.4,686.1,614.7,684.4,614.7,682.1z"/>
		<path class="st4" d="M659.8,604.2h14.7l-5.8,33c5.6-5.9,12.3-8.9,20.1-8.9c8.2,0,13.9,2.6,17,7.6c3.1,5.1,3.9,12.2,2.3,21.3
			l-5.5,31.3h-14.7l5.5-31.2c1-5.4,0.5-9.3-1.3-11.7c-1.8-2.4-5-3.7-9.6-3.7c-4.3,0-8.1,1.6-11.4,4.8c-3.3,3.2-5.4,7-6.2,11.5
			l-5.3,30.4H645L659.8,604.2z"/>
		<path class="st4" d="M727.2,629.1h14.6l-5.4,31.1c-0.9,5.1-0.6,9.1,0.7,11.9c1.4,2.8,4.5,4.2,9.5,4.2c4.5,0,8.7-1.7,12.5-5
			c3.8-3.3,6.1-7.3,6.9-11.9l5.3-30.4h14.7l-10.4,59.4h-13.1l0.2-7.9c-6.1,5.9-13.3,8.8-21.7,8.8c-7.3,0-12.8-2.6-16.4-7.8
			c-3.6-5.2-4.6-12.3-3-21.3L727.2,629.1z"/>
	</g>
	<g>
		<path d="M122.9,688.6h-15.8l7.3-41.2c1-5.8,0.2-10.6-2.2-14.5c-2.5-3.9-6.4-5.8-11.7-5.8c-5.3,0-10,2-14,5.8
			c-4,3.9-6.5,8.7-7.6,14.5l-7.3,41.2H56l13.2-75.2h14.6l-0.7,10c5.3-7.5,13-11.3,23.1-11.3c5.3,0,9.8,1.2,13.6,3.6
			c3.8,2.5,6.2,6.2,7.3,11.4c7.2-9.9,16.6-14.9,28.3-14.9c10.3,0,17.6,3,21.9,9.1c4.4,6.1,5.7,14.6,3.7,25.5l-7.3,41.6h-15.8
			l7.3-41.6c1-5.8,0.4-10.5-1.7-14.3c-2.2-3.8-5.9-5.7-11.3-5.7c-5.3,0-10.1,2-14.1,5.8c-4,3.9-6.6,8.7-7.6,14.4L122.9,688.6z"/>
		<path d="M264.9,624.7l2.5-11.1h15.2c-1.5,8.3-3.7,20.8-6.6,37.5c-2.9,16.7-5.1,29.2-6.6,37.5h-15l1.5-11.4
			c-3.1,4.4-7.2,7.8-12.4,9.9c-5.1,2.2-10.3,3.3-15.4,3.3c-10,0-18-2.8-24-8.4c-6-5.6-9-13.5-9-23.6c0-14.2,4.5-25.5,13.6-33.9
			c9-8.4,20-12.7,32.9-12.7c5.3,0,10.2,1.2,14.5,3.5C260.3,617.6,263.3,620.7,264.9,624.7z M240.5,626.1c-7.8,0-14.6,2.7-20.5,8.1
			c-5.8,5.4-8.9,12.4-9,20.9c-0.1,6.3,1.7,11.3,5.4,15c3.7,3.8,8.5,5.7,14.6,5.7c10,0,17.9-4.2,23.7-12.5c4.9-7,6.8-14.2,5.5-21.8
			c-1.3-7.7-5.6-12.6-12.7-14.6C245.3,626.5,243,626.1,240.5,626.1z"/>
		<path d="M303.8,613.6h14.6l-0.7,9.9c5.8-7.7,13.9-11.6,24.2-11.6c7.6,0,13.4,2.1,17.3,6.4l-9.4,13.7c-3.4-3-7.5-4.6-12.5-4.6
			c-5.8,0-10.9,1.8-15.4,5.3c-4.5,3.5-7.3,8.6-8.5,15.2l-7.1,40.6h-15.6L303.8,613.6z"/>
		<path d="M376.3,582.2H392l-10.9,62.1l33.3-30.7h19l-0.2,0.9l-38.9,35.3l30.4,37.7l-0.2,1.1H406l-26.5-34.1l-6.1,34.1h-15.8
			L376.3,582.2z"/>
	</g>
	<g>
		<path class="st4" d="M507.8,668.8l-3.5,19.7h-79.6c2.1-11.7,5.2-29.4,9.4-53.1c4.2-23.7,7.3-41.4,9.4-53.2H523l-3.4,18.6h-59.7
			l-4.4,25.2H513l-3.2,18.6h-57.6l-4.3,24L507.8,668.8L507.8,668.8z"/>
		<path class="st4" d="M544.6,582.2h20L549.3,670H604l-3.4,18.6h-74.8L544.6,582.2z"/>
	</g>
</g>
</svg>
