<?xml version="1.0" encoding="utf-8"?>
<!-- Generator: Adobe Illustrator 28.3.0, SVG Export Plug-In . SVG Version: 6.00 Build 0)  -->
<svg version="1.1" id="Layer_1" xmlns="http://www.w3.org/2000/svg" xmlns:xlink="http://www.w3.org/1999/xlink" x="0px" y="0px"
	 viewBox="0 0 841.9 336.5" style="enable-background:new 0 0 841.9 336.5;" xml:space="preserve">
<style type="text/css">
	.st0{fill:#0A0A0A;}
	.st1{fill:#EFEFEF;}
	.st2{fill:#0FED14;}
	.st3{enable-background:new    ;}
	.st4{fill:#F90606;}
</style>
<g>
	<path d="M1241.7-53.7L1241.7-53.7l-62.8,113.9h23.3l39.5-69l39.4,69h23.4L1241.7-53.7z"/>
	<path d="M1384.9,19.8c10.1-2.1,17.4-6.4,22-12.9c4.6-6.6,6.8-14.2,6.8-22.9c0-10.4-3.6-19.3-10.9-26.6s-17.3-11-30.1-11.1
		c-6.1,0-15.1,0-27.2-0.1c-12-0.1-21-0.1-27-0.1V60.2h21.5V22.1h21.8l33,38.1h24.6L1384.9,19.8z M1340,2.7v-36.4h32.7
		c6.3,0,11.1,1.8,14.5,5.4s5,7.9,5,12.9s-1.7,9.3-5,12.8c-3.3,3.6-8.2,5.4-14.6,5.4L1340,2.7L1340,2.7z"/>
	<path d="M1477.8,1.4l50.6-55.2h-26.7l-43.3,48.2v-48.2H1437v114h21.5V9.7l47.7,50.4h26.5L1477.8,1.4z"/>
	<path d="M1538.2-5.9v18.2h60V-5.9H1538.2z"/>
	<path d="M1706.4-32.9v-20.8h-85.3V60.2h85.3V39h-64V13.3h61.7v-20h-61.7v-26.2H1706.4z"/>
	<path d="M1750.9,40.3v-94.1h-21.5v114h80.1V40.3H1750.9z"/>
	<polygon points="1164.9,-53.7 1104.7,-3.6 1044.3,-53.7 1044.3,60.2 1065.8,60.2 1065.8,-8.2 1104.2,26.5 1143.4,-8.1 1143.4,60.2 
		1164.9,60.2 	"/>
</g>
<rect x="-53.8" y="-270.7" class="st0" width="925.2" height="196.3"/>
<path class="st1" d="M235.8-229.4L235.8-229.4L173-115.5h23.3l39.5-69l39.4,69h23.4L235.8-229.4z"/>
<path class="st1" d="M379-155.9c10.1-2.1,17.4-6.4,22-12.9c4.6-6.6,6.8-14.2,6.8-22.9c0-10.4-3.6-19.3-10.9-26.6s-17.3-11-30.1-11.1
	c-6.1,0-15.1,0-27.2-0.1c-12-0.1-21-0.1-27-0.1v114.1h21.5v-38.1h21.8l33,38.1h24.6L379-155.9z M334.1-173v-36.4h32.7
	c6.3,0,11.1,1.8,14.5,5.4c3.4,3.6,5,7.9,5,12.9s-1.7,9.3-5,12.8c-3.3,3.6-8.2,5.4-14.6,5.4L334.1-173L334.1-173z"/>
<path class="st1" d="M471.9-174.3l50.6-55.2h-26.7l-43.3,48.2v-48.2H431v113.9h21.5V-166l47.7,50.4h26.5L471.9-174.3z"/>
<path class="st2" d="M532.3-181.6v18.2h60v-18.2H532.3z"/>
<path class="st2" d="M700.5-208.6v-20.8h-85.3v113.9h85.3v-21.2h-64v-25.7h61.7v-20h-61.7v-26.2H700.5z"/>
<path class="st2" d="M744.9-135.4v-94.1h-21.5v113.9h80.1v-19.9h-58.6V-135.4z"/>
<polygon class="st1" points="159,-229.4 98.8,-179.3 38.4,-229.4 38.4,-115.5 59.9,-115.5 59.9,-183.9 98.3,-149.2 137.5,-183.8 
	137.5,-115.5 159,-115.5 "/>
<text transform="matrix(1 0 0 1 312.2887 489.0949)" style="font-family:'BurbankBigCondensed-Bold'; font-size:146.6129px;">mark</text>
<g>
	<g class="st3">
		<path class="st4" d="M614.7,214.1c0-3.1,1.1-5.6,3.2-7.3c2.1-1.8,4.6-2.6,7.3-2.6c2,0,3.7,0.7,5.2,2c1.4,1.4,2.2,3.2,2.2,5.4
			c0,3.1-1,5.4-3.1,7.1c-2.1,1.7-4.5,2.5-7.2,2.5c-2.2,0-4-0.6-5.4-1.9C615.4,218.1,614.7,216.4,614.7,214.1z"/>
		<path class="st4" d="M659.8,136.2h14.7l-5.8,33c5.6-5.9,12.3-8.9,20.1-8.9c8.2,0,13.9,2.6,17,7.6c3.1,5.1,3.9,12.2,2.3,21.3
			l-5.5,31.3h-14.7l5.5-31.2c1-5.4,0.5-9.3-1.3-11.7c-1.8-2.4-5-3.7-9.6-3.7c-4.3,0-8.1,1.6-11.4,4.8c-3.3,3.2-5.4,7-6.2,11.5
			l-5.3,30.4H645L659.8,136.2z"/>
		<path class="st4" d="M727.2,161.1h14.6l-5.4,31.1c-0.9,5.1-0.6,9.1,0.7,11.9c1.4,2.8,4.5,4.2,9.5,4.2c4.5,0,8.7-1.7,12.5-5
			c3.8-3.3,6.1-7.3,6.9-11.9l5.3-30.4h14.7l-10.4,59.4h-13.1l0.2-7.9c-6.1,5.9-13.3,8.8-21.7,8.8c-7.3,0-12.8-2.6-16.4-7.8
			c-3.6-5.2-4.6-12.3-3-21.3L727.2,161.1z"/>
	</g>
	<g>
		<path d="M122.9,220.6h-15.8l7.3-41.2c1-5.8,0.2-10.6-2.2-14.5c-2.5-3.9-6.4-5.8-11.7-5.8c-5.3,0-10,2-14,5.8
			c-4,3.9-6.5,8.7-7.6,14.5l-7.3,41.2H56l13.2-75.2h14.6l-0.7,10c5.3-7.5,13-11.3,23.1-11.3c5.3,0,9.8,1.2,13.6,3.6
			c3.8,2.5,6.2,6.2,7.3,11.4c7.2-9.9,16.6-14.9,28.3-14.9c10.3,0,17.6,3,21.9,9.1c4.4,6.1,5.7,14.6,3.7,25.5l-7.3,41.6h-15.8
			l7.3-41.6c1-5.8,0.4-10.5-1.7-14.3c-2.2-3.8-5.9-5.7-11.3-5.7c-5.3,0-10.1,2-14.1,5.8c-4,3.9-6.6,8.7-7.6,14.4L122.9,220.6z"/>
		<path d="M264.9,156.7l2.5-11.1h15.2c-1.5,8.3-3.7,20.8-6.6,37.5c-2.9,16.7-5.1,29.2-6.6,37.5h-15l1.5-11.4
			c-3.1,4.4-7.2,7.8-12.4,9.9c-5.1,2.2-10.3,3.3-15.4,3.3c-10,0-18-2.8-24-8.4c-6-5.6-9-13.5-9-23.6c0-14.2,4.5-25.5,13.6-33.9
			c9-8.4,20-12.7,32.9-12.7c5.3,0,10.2,1.2,14.5,3.5C260.3,149.6,263.3,152.7,264.9,156.7z M240.5,158.1c-7.8,0-14.6,2.7-20.5,8.1
			s-8.9,12.4-9,20.9c-0.1,6.3,1.7,11.3,5.4,15c3.7,3.8,8.5,5.7,14.6,5.7c10,0,17.9-4.2,23.7-12.5c4.9-7,6.8-14.2,5.5-21.8
			c-1.3-7.7-5.6-12.6-12.7-14.6C245.3,158.5,243,158.1,240.5,158.1z"/>
		<path d="M303.8,145.6h14.6l-0.7,9.9c5.8-7.7,13.9-11.6,24.2-11.6c7.6,0,13.4,2.1,17.3,6.4l-9.4,13.7c-3.4-3-7.5-4.6-12.5-4.6
			c-5.8,0-10.9,1.8-15.4,5.3s-7.3,8.6-8.5,15.2l-7.1,40.6h-15.6L303.8,145.6z"/>
		<path d="M376.3,114.2H392l-10.9,62.1l33.3-30.7h19l-0.2,0.9l-38.9,35.3l30.4,37.7l-0.2,1.1H406l-26.5-34.1l-6.1,34.1h-15.8
			L376.3,114.2z"/>
	</g>
	<g>
		<path class="st4" d="M507.8,200.8l-3.5,19.7h-79.6c2.1-11.7,5.2-29.4,9.4-53.1c4.2-23.7,7.3-41.4,9.4-53.2H523l-3.4,18.6h-59.7
			l-4.4,25.2H513l-3.2,18.6h-57.6l-4.3,24L507.8,200.8L507.8,200.8z"/>
		<path class="st4" d="M544.6,114.2h20L549.3,202H604l-3.4,18.6h-74.8L544.6,114.2z"/>
	</g>
</g>
</svg>
