<?xml version="1.0" encoding="utf-8"?>
<!-- Generator: Adobe Illustrator 28.3.0, SVG Export Plug-In . SVG Version: 6.00 Build 0)  -->
<svg version="1.1" id="Layer_1" xmlns="http://www.w3.org/2000/svg" xmlns:xlink="http://www.w3.org/1999/xlink" x="0px" y="0px"
	 viewBox="0 0 841.9 336.5" style="enable-background:new 0 0 841.9 336.5;" xml:space="preserve">
<style type="text/css">
	.st0{fill:#0A0A0A;}
	.st1{fill:#EFEFEF;}
	.st2{fill:#0FED14;}
	.st3{fill:#F90606;}
</style>
<g>
	<path d="M1241.7-53.7L1241.7-53.7l-62.8,113.9h23.3l39.5-69l39.4,69h23.4L1241.7-53.7z"/>
	<path d="M1384.9,19.8c10.1-2.1,17.4-6.4,22-12.9c4.6-6.6,6.8-14.2,6.8-22.9c0-10.4-3.6-19.3-10.9-26.6c-7.3-7.3-17.3-11-30.1-11.1
		c-6.1,0-15.1,0-27.2-0.1c-12-0.1-21-0.1-27-0.1V60.2h21.5V22.1h21.8l33,38.1h24.6L1384.9,19.8z M1340,2.7v-36.4h32.7
		c6.3,0,11.1,1.8,14.5,5.4c3.4,3.6,5,7.9,5,12.9s-1.7,9.3-5,12.8c-3.3,3.6-8.2,5.4-14.6,5.4H1340z"/>
	<path d="M1477.8,1.4l50.6-55.2h-26.7l-43.3,48.2v-48.2H1437V60.2h21.5V9.7l47.7,50.4h26.5L1477.8,1.4z"/>
	<path d="M1538.2-5.9v18.2h60V-5.9H1538.2z"/>
	<path d="M1706.4-32.9v-20.8h-85.3V60.2h85.3V39h-64V13.3h61.7v-20h-61.7v-26.2H1706.4z"/>
	<path d="M1750.9,40.3v-94.1h-21.5V60.2h80.1V40.3H1750.9z"/>
	<polygon points="1164.9,-53.7 1104.7,-3.6 1044.3,-53.7 1044.3,60.2 1065.8,60.2 1065.8,-8.2 1104.2,26.5 1143.4,-8.1 1143.4,60.2 
		1164.9,60.2 	"/>
</g>
<rect x="-53.8" y="-270.7" class="st0" width="925.2" height="196.3"/>
<path class="st1" d="M235.8-229.4L235.8-229.4L173-115.5h23.3l39.5-69l39.4,69h23.4L235.8-229.4z"/>
<path class="st1" d="M379-155.9c10.1-2.1,17.4-6.4,22-12.9c4.6-6.6,6.8-14.2,6.8-22.9c0-10.4-3.6-19.3-10.9-26.6
	c-7.3-7.3-17.3-11-30.1-11.1c-6.1,0-15.1,0-27.2-0.1c-12-0.1-21-0.1-27-0.1v114.1h21.5v-38.1h21.8l33,38.1h24.6L379-155.9z
	 M334.1-173v-36.4h32.7c6.3,0,11.1,1.8,14.5,5.4c3.4,3.6,5,7.9,5,12.9c0,5-1.7,9.3-5,12.8c-3.3,3.6-8.2,5.4-14.6,5.4H334.1z"/>
<path class="st1" d="M471.9-174.3l50.6-55.2h-26.7l-43.3,48.2v-48.2H431v113.9h21.5V-166l47.7,50.4h26.5L471.9-174.3z"/>
<path class="st2" d="M532.3-181.6v18.2h60v-18.2H532.3z"/>
<path class="st2" d="M700.5-208.6v-20.8h-85.3v113.9h85.3v-21.2h-64v-25.7h61.7v-20h-61.7v-26.2H700.5z"/>
<path class="st2" d="M744.9-135.4v-94.1h-21.5v113.9h80.1v-19.9H744.9z"/>
<polygon class="st1" points="159,-229.4 98.8,-179.3 38.4,-229.4 38.4,-115.5 59.9,-115.5 59.9,-183.9 98.3,-149.2 137.5,-183.8 
	137.5,-115.5 159,-115.5 "/>
<text transform="matrix(1 0 0 1 312.2887 489.0949)" style="font-family:'BurbankBigCondensed-Bold'; font-size:146.6129px;">mark</text>
<text transform="matrix(1 0 0 1 528.4492 489.0949)" class="st3" style="font-family:'Nexa-XBoldItalic'; font-size:146.6129px;">EL</text>
<g>
	<path d="M177.9,225.5h-19.2l8.9-50.2c1.2-7,0.3-12.9-2.7-17.7c-3-4.8-7.8-7.1-14.3-7.1c-6.5,0-12.2,2.4-17.1,7.1
		c-4.9,4.8-7.9,10.6-9.2,17.7l-8.9,50.2h-19l16.1-91.5h17.8l-0.9,12.2c6.4-9.1,15.8-13.7,28.1-13.7c6.4,0,11.9,1.5,16.5,4.4
		c4.6,3,7.5,7.6,8.9,13.9c8.8-12.1,20.2-18.1,34.4-18.1c12.5,0,21.4,3.7,26.7,11.1c5.4,7.4,6.9,17.8,4.5,31.1l-8.9,50.6h-19.2
		l8.9-50.6c1.2-7,0.5-12.8-2.1-17.4c-2.7-4.6-7.2-6.9-13.8-6.9c-6.5,0-12.3,2.4-17.2,7.1c-4.9,4.8-8,10.6-9.2,17.5L177.9,225.5z"/>
	<path d="M350.8,147.7l3-13.5h18.5c-1.8,10.1-4.5,25.3-8,45.6c-3.5,20.3-6.2,35.5-8,45.6H338l1.8-13.9c-3.8,5.4-8.8,9.5-15.1,12.1
		c-6.2,2.7-12.5,4-18.8,4c-12.2,0-21.9-3.4-29.2-10.2c-7.3-6.8-10.9-16.4-10.9-28.7c0-17.3,5.5-31,16.6-41.3
		c11-10.2,24.4-15.4,40-15.4c6.5,0,12.4,1.4,17.6,4.2C345.2,139.1,348.8,142.9,350.8,147.7z M321,149.5c-9.5,0-17.8,3.3-24.9,9.9
		c-7.1,6.6-10.8,15.1-11,25.5c-0.1,7.7,2.1,13.8,6.6,18.3c4.5,4.6,10.4,6.9,17.8,6.9c12.2,0,21.8-5.1,28.8-15.2
		c6-8.5,8.3-17.3,6.7-26.5c-1.6-9.4-6.8-15.3-15.5-17.8C326.9,149.9,324.1,149.5,321,149.5z"/>
	<path d="M398.1,134.2h17.8l-0.9,12c7.1-9.4,16.9-14.1,29.4-14.1c9.2,0,16.3,2.6,21.1,7.8l-11.5,16.7c-4.1-3.7-9.1-5.6-15.2-5.6
		c-7,0-13.3,2.2-18.8,6.5c-5.5,4.3-8.9,10.5-10.3,18.5l-8.7,49.4h-19L398.1,134.2z"/>
	<path d="M486.3,96h19.2l-13.3,75.6l40.5-37.4h23.1l-0.2,1.1l-47.3,43l37,45.9l-0.2,1.3h-22.6L490.2,184l-7.4,41.5h-19.2L486.3,96z"
		/>
</g>
<g>
	<path class="st3" d="M646.4,201.4l-4.3,24h-96.9c2.5-14.3,6.3-35.8,11.4-64.6c5.1-28.8,8.9-50.4,11.4-64.8h96.9l-4.1,22.7h-72.7
		l-5.4,30.7h70.1l-3.9,22.7h-70.1l-5.2,29.2H646.4z"/>
	<path class="st3" d="M691.2,96h24.4l-18.7,106.9h66.6l-4.1,22.6h-91L691.2,96z"/>
</g>
</svg>
